<mxfile host="app.diagrams.net" modified="2021-06-29T07:54:36.059Z" agent="5.0 (Windows NT 10.0; Win64; x64) AppleWebKit/537.36 (KHTML, like Gecko) Chrome/91.0.4472.124 Safari/537.36" etag="r-GnVxF683DMp-lxE47S" version="14.8.2" type="github">
  <diagram id="kHFXiX71pW4YKV7DdDcE" name="Page-1">
    <mxGraphModel dx="460" dy="1961" grid="1" gridSize="10" guides="1" tooltips="1" connect="1" arrows="1" fold="1" page="1" pageScale="1" pageWidth="827" pageHeight="1169" math="0" shadow="0">
      <root>
        <mxCell id="0" />
        <mxCell id="1" parent="0" />
        <mxCell id="uPSEPlQezed_YOI_YNSj-3" value="เริ่มต้น" style="strokeWidth=2;html=1;shape=mxgraph.flowchart.start_1;whiteSpace=wrap;" vertex="1" parent="1">
          <mxGeometry x="190" y="-1130" width="100" height="60" as="geometry" />
        </mxCell>
        <mxCell id="uPSEPlQezed_YOI_YNSj-5" value="" style="shape=singleArrow;direction=south;whiteSpace=wrap;html=1;" vertex="1" parent="1">
          <mxGeometry x="232.5" y="-1060" width="15" height="50" as="geometry" />
        </mxCell>
        <mxCell id="uPSEPlQezed_YOI_YNSj-10" style="edgeStyle=orthogonalEdgeStyle;rounded=0;orthogonalLoop=1;jettySize=auto;html=1;" edge="1" parent="1" source="uPSEPlQezed_YOI_YNSj-6">
          <mxGeometry relative="1" as="geometry">
            <mxPoint x="120" y="-750" as="targetPoint" />
          </mxGeometry>
        </mxCell>
        <mxCell id="uPSEPlQezed_YOI_YNSj-13" value="False&lt;br&gt;( x &amp;lt; 50 )" style="edgeLabel;html=1;align=center;verticalAlign=middle;resizable=0;points=[];fontSize=15;" vertex="1" connectable="0" parent="uPSEPlQezed_YOI_YNSj-10">
          <mxGeometry x="0.136" y="2" relative="1" as="geometry">
            <mxPoint x="-42" y="4" as="offset" />
          </mxGeometry>
        </mxCell>
        <mxCell id="uPSEPlQezed_YOI_YNSj-11" style="edgeStyle=orthogonalEdgeStyle;rounded=0;orthogonalLoop=1;jettySize=auto;html=1;exitX=1;exitY=0.5;exitDx=0;exitDy=0;exitPerimeter=0;" edge="1" parent="1" source="uPSEPlQezed_YOI_YNSj-6">
          <mxGeometry relative="1" as="geometry">
            <mxPoint x="360" y="-750" as="targetPoint" />
          </mxGeometry>
        </mxCell>
        <mxCell id="uPSEPlQezed_YOI_YNSj-12" value="True&lt;br&gt;( x &amp;gt; 50)" style="edgeLabel;html=1;align=center;verticalAlign=middle;resizable=0;points=[];fontSize=15;" vertex="1" connectable="0" parent="uPSEPlQezed_YOI_YNSj-11">
          <mxGeometry x="0.536" y="-2" relative="1" as="geometry">
            <mxPoint x="42" y="-21" as="offset" />
          </mxGeometry>
        </mxCell>
        <mxCell id="uPSEPlQezed_YOI_YNSj-6" value="มากกว่าหรือน้อยกว่า 50" style="strokeWidth=2;html=1;shape=mxgraph.flowchart.decision;whiteSpace=wrap;" vertex="1" parent="1">
          <mxGeometry x="160" y="-870" width="160" height="70" as="geometry" />
        </mxCell>
        <mxCell id="uPSEPlQezed_YOI_YNSj-7" value="สมศักดิ์รับคะแนนของนางสาว สมศรี" style="shape=parallelogram;html=1;strokeWidth=2;perimeter=parallelogramPerimeter;whiteSpace=wrap;rounded=1;arcSize=12;size=0.23;" vertex="1" parent="1">
          <mxGeometry x="110" y="-1000" width="260" height="60" as="geometry" />
        </mxCell>
        <mxCell id="uPSEPlQezed_YOI_YNSj-9" value="" style="shape=singleArrow;direction=south;whiteSpace=wrap;html=1;" vertex="1" parent="1">
          <mxGeometry x="232.5" y="-930" width="15" height="50" as="geometry" />
        </mxCell>
        <mxCell id="uPSEPlQezed_YOI_YNSj-21" style="edgeStyle=orthogonalEdgeStyle;rounded=0;orthogonalLoop=1;jettySize=auto;html=1;entryX=0;entryY=0.4;entryDx=0;entryDy=0;entryPerimeter=0;fontSize=11;" edge="1" parent="1" source="uPSEPlQezed_YOI_YNSj-15" target="uPSEPlQezed_YOI_YNSj-20">
          <mxGeometry relative="1" as="geometry" />
        </mxCell>
        <mxCell id="uPSEPlQezed_YOI_YNSj-15" value="&quot;เสียใจด้วยไม่ได้ไปต่อ&quot;" style="shape=parallelogram;html=1;strokeWidth=2;perimeter=parallelogramPerimeter;whiteSpace=wrap;rounded=1;arcSize=12;size=0.23;fontSize=11;" vertex="1" parent="1">
          <mxGeometry x="50" y="-740" width="150" height="60" as="geometry" />
        </mxCell>
        <mxCell id="uPSEPlQezed_YOI_YNSj-19" style="edgeStyle=orthogonalEdgeStyle;rounded=0;orthogonalLoop=1;jettySize=auto;html=1;fontSize=11;entryX=1.02;entryY=0.35;entryDx=0;entryDy=0;entryPerimeter=0;" edge="1" parent="1" source="uPSEPlQezed_YOI_YNSj-17" target="uPSEPlQezed_YOI_YNSj-20">
          <mxGeometry relative="1" as="geometry">
            <mxPoint x="300" y="-600" as="targetPoint" />
            <Array as="points">
              <mxPoint x="360" y="-600" />
            </Array>
          </mxGeometry>
        </mxCell>
        <mxCell id="uPSEPlQezed_YOI_YNSj-17" value="&quot;เก่งมาก กล้ามาก ขอบใจ&quot;" style="shape=parallelogram;html=1;strokeWidth=2;perimeter=parallelogramPerimeter;whiteSpace=wrap;rounded=1;arcSize=12;size=0.23;fontSize=11;" vertex="1" parent="1">
          <mxGeometry x="280" y="-740" width="160" height="60" as="geometry" />
        </mxCell>
        <mxCell id="uPSEPlQezed_YOI_YNSj-20" value="สิ้นสุด" style="strokeWidth=2;html=1;shape=mxgraph.flowchart.start_1;whiteSpace=wrap;fontSize=11;" vertex="1" parent="1">
          <mxGeometry x="190" y="-620" width="100" height="60" as="geometry" />
        </mxCell>
      </root>
    </mxGraphModel>
  </diagram>
</mxfile>
